<?xml version="1.0" standalone="no"?><!DOCTYPE svg PUBLIC "-//W3C//DTD SVG 1.1//EN" "http://www.w3.org/Graphics/SVG/1.1/DTD/svg11.dtd"><svg t="1579188876175" class="icon" viewBox="0 0 1024 1024" version="1.1" xmlns="http://www.w3.org/2000/svg" p-id="1392" width="36" height="36" xmlns:xlink="http://www.w3.org/1999/xlink"><defs><style type="text/css"></style></defs><path d="M512 96L96 896h416L928 96z" fill="#F6D499" p-id="1393"></path><path d="M595.2 96l-416 800h83.2l416-800zM761.6 96l-416 800h83.2l416-800z" fill="#DF7867" p-id="1394"></path><path d="M623.85 147.49c-3.12 12.86-5.45 24.53-2.52 35.36-37.23 10.81-70.43 38.11-84.82 74.66-8.78 22.31-8.85 44.27-2.45 63.42-19.4 13.89-35.35 32.61-44.13 54.92-6.35 16.13-7.87 32.03-6.07 46.92-10.98 8.23-19.94 19.14-24.99 31.96-4.17 10.59-4.92 21.03-3.26 30.66-21.23 7-39.89 23.03-48.17 44.07-3.11 7.89-4.39 15.72-4.21 23.19-20.97 11.22-38.46 29.28-47.23 51.54-7.97 20.25-7.05 40.18 0.41 56.79-1.13 2.17-2.42 4.25-3.32 6.53-4.31 10.94-5.01 21.73-3.12 31.62-24.9 14.12-45.54 36.06-56.08 62.84-7.58 19.27-8.67 38.31-4.78 55.51-14.96 11.03-27.2 25.73-34.04 43.1-5.68 14.44-1.66 30.62 7.3 35.4l23.63-8.19 22.94-14.15 12.54 7.91L678.4 96s-44.4 9.6-54.55 51.49z" fill="#95BD65" p-id="1395"></path><path d="M678.4 96l-416 800h83.2l416-800z" fill="#F6CE46" p-id="1396"></path><path d="M928 96L512 896h416z" fill="#E6B05D" p-id="1397"></path><path d="M768 640a16 32 0 1 0 32 0 16 32 0 1 0-32 0Z" fill="#D39842" p-id="1398"></path><path d="M836 776a12 24 0 1 0 24 0 12 24 0 1 0-24 0Z" fill="#D39842" p-id="1399"></path><path d="M840 496a8 16 0 1 0 16 0 8 16 0 1 0-16 0Z" fill="#D39842" p-id="1400"></path></svg>